<svg width="52" height="50" viewBox="0 0 52 50" fill="none" xmlns="http://www.w3.org/2000/svg">
<g clip-path="url(#clip0)">
<path d="M26.8985 35.4583L27.6522 39.8714C27.1757 40.125 26.4239 40.3641 25.3985 40.587C24.3732 40.8098 23.1576 40.9275 21.7554 40.942C17.7627 40.8623 14.7554 39.6775 12.7337 37.3877C10.712 35.0996 9.69927 32.183 9.69565 28.6377C9.7826 24.462 11.0036 21.2482 13.3605 18.9964C15.7156 16.7446 18.6866 15.6051 22.2681 15.5797C23.6322 15.5924 24.8043 15.7065 25.7826 15.9239C26.7609 16.1413 27.4855 16.3841 27.9583 16.6522L26.8623 21.1685L24.9891 20.5399C24.1633 20.354 23.3193 20.2616 22.4728 20.2645C20.3678 20.2609 18.6322 20.9257 17.2627 22.2572C15.8931 23.5906 15.1848 25.6087 15.1359 28.3134C15.154 30.7772 15.8043 32.7083 17.087 34.1105C18.3677 35.5127 20.1757 36.2265 22.5072 36.2536L24.9076 36.0326C25.5902 35.9168 26.2575 35.7241 26.8967 35.4583H26.8985ZM27.8116 26.4493H31.4348V22.8261H35.058V26.4493H38.6812V30.0725H35.058V33.6957H31.4348V30.0725H27.8116V26.4493ZM40.4927 26.4493H44.1159V22.8261H47.7391V26.4493H51.3623V30.0725H47.7391V33.6957H44.1159V30.0725H40.4927V26.4493Z" fill="#F64C72"/>
</g>
<g clip-path="url(#clip1)">
<path d="M19.6522 28.9366L20.4058 33.3497C19.9294 33.6033 19.1775 33.8424 18.1522 34.0652C17.1268 34.2881 15.9112 34.4058 14.5091 34.4203C10.5163 34.3406 7.50906 33.1558 5.48732 30.866C3.46558 28.5779 2.4529 25.6612 2.44928 22.116C2.53624 17.9402 3.75725 14.7265 6.11413 12.4747C8.46921 10.2228 11.4402 9.08335 15.0217 9.05798C16.3859 9.07066 17.558 9.1848 18.5362 9.40219C19.5145 9.61958 20.2391 9.86233 20.712 10.1304L19.6159 14.6468L17.7428 14.0181C16.917 13.8323 16.0729 13.7399 15.2265 13.7428C13.1214 13.7391 11.3859 14.404 10.0163 15.7355C8.64674 17.0689 7.93841 19.087 7.8895 21.7917C7.90761 24.2554 8.55798 26.1866 9.84058 27.5888C11.1214 28.991 12.9294 29.7047 15.2609 29.7319L17.6612 29.5109C18.3438 29.395 19.0111 29.2024 19.6504 28.9366H19.6522ZM20.5652 19.9275H24.1884V16.3044H27.8116V19.9275H31.4348V23.5507H27.8116V27.1739H24.1884V23.5507H20.5652V19.9275ZM33.2464 19.9275H36.8696V16.3044H40.4928V19.9275H44.1159V23.5507H40.4928V27.1739H36.8696V23.5507H33.2464V19.9275Z" fill="#FEFFFF"/>
</g>
<defs>
<clipPath id="clip0">
<rect width="43.4783" height="43.4783" fill="white" transform="translate(7.88406 6.52173)"/>
</clipPath>
<clipPath id="clip1">
<rect width="43.4783" height="43.4783" fill="white" transform="translate(0.637695)"/>
</clipPath>
</defs>
</svg>
