<svg width="160" height="50" viewBox="0 0 160 50" fill="none" xmlns="http://www.w3.org/2000/svg">
<path d="M0.989934 34.3824V17.439H22.1267V16.4479H0.989934V0.990772H23.4631V0H0V35.3731H23.661V34.3824H0.990231H0.989934ZM42.719 9.90832L33.9575 21.4518L25.3936 9.90862H24.1066L33.3633 22.1951L23.2153 35.3728H24.4034L33.9569 22.9376L43.5601 35.3728H44.7975L34.6004 22.1945L43.9065 9.90802H42.7187L42.719 9.90832ZM47.7679 44.0926V28.2394H47.8668C48.461 30.5513 49.6325 32.4091 51.3815 33.8129C53.1305 35.2164 55.3579 35.9185 58.0638 35.9185C59.8129 35.9185 61.364 35.5634 62.717 34.8534C64.07 34.1433 65.2001 33.1772 66.1078 31.9551C67.0151 30.733 67.7083 29.3128 68.1869 27.6943C68.6652 26.0762 68.9047 24.375 68.9047 22.5918C68.9047 20.676 68.6569 18.9088 68.1619 17.2906C67.667 15.6722 66.9492 14.2684 66.0088 13.0796C65.0682 11.8905 63.9297 10.9654 62.5931 10.3053C61.2567 9.64457 59.7469 9.31421 58.0638 9.31421C56.7768 9.31421 55.5807 9.50422 54.4752 9.88393C53.3697 10.2639 52.388 10.8004 51.53 11.4941C50.667 12.1931 49.9158 13.0201 49.3024 13.9463C48.6755 14.8878 48.1969 15.9199 47.8668 17.0429H47.7679V9.90832H46.7779V44.0926H47.7679V44.0926ZM58.0638 34.9768C54.9621 34.9768 52.4703 33.9116 50.5894 31.7814C48.7085 29.6512 47.7679 26.5876 47.7679 22.5912C47.7679 20.9397 47.999 19.3709 48.461 17.8847C48.923 16.3986 49.5912 15.0938 50.4655 13.971C51.3402 12.8479 52.421 11.9562 53.7078 11.2958C54.9948 10.635 56.447 10.3047 58.0638 10.3047C59.7139 10.3047 61.1578 10.635 62.3952 11.2958C63.6326 11.9562 64.6559 12.8563 65.4643 13.9957C66.2727 15.1351 66.8832 16.4399 67.2959 17.9094C67.7083 19.3792 67.9144 20.9397 67.9144 22.5912C67.9144 24.0777 67.7249 25.5558 67.3452 27.0253C66.9658 28.4951 66.3799 29.8162 65.5879 30.989C64.7961 32.1611 63.7815 33.1189 62.5438 33.8623C61.3061 34.6054 59.8129 34.9768 58.0638 34.9768V34.9768ZM74.3496 35.3731V20.9564C74.3496 19.5692 74.5475 18.2148 74.9438 16.894C75.3395 15.5728 75.9501 14.4084 76.7751 13.4013C77.6002 12.3939 78.6477 11.6011 79.9184 11.0231C81.1888 10.445 82.6987 10.2057 84.4477 10.3047V9.31391C82.9295 9.2812 81.6015 9.44594 80.463 9.8093C79.3242 10.1727 78.3426 10.668 77.5176 11.2958C76.6925 11.9232 76.0327 12.6579 75.5377 13.5003C75.0431 14.3414 74.676 15.2513 74.4485 16.2003H74.3496V9.90832H73.3597V35.3734H74.3496V35.3731ZM85.6851 22.8389H106.97C107.036 21.0884 106.863 19.4042 106.451 17.7857C106.038 16.1673 105.378 14.7305 104.471 13.4756C103.563 12.2205 102.392 11.2131 100.956 10.4534C99.5204 9.69363 97.8127 9.31391 95.8328 9.31391C94.4136 9.31391 93.0276 9.61126 91.6746 10.206C90.3216 10.8004 89.1335 11.6671 88.1106 12.8066C87.0877 13.946 86.2627 15.3415 85.6358 16.9933C85.0089 18.6445 84.6952 20.527 84.6952 22.6409C84.6952 24.5234 84.9097 26.2822 85.3387 27.9171C85.7677 29.5519 86.4276 30.9723 87.3186 32.1778C88.2099 33.3833 89.3567 34.3163 90.759 34.9768C92.1613 35.6375 93.8527 35.9512 95.8328 35.9182C98.7367 35.9182 101.179 35.1005 103.159 33.4659C105.139 31.8308 106.31 29.5272 106.673 26.5546H105.683C105.254 29.3622 104.157 31.4677 102.392 32.8712C100.626 34.275 98.4069 34.9768 95.7336 34.9768C93.9186 34.9768 92.3841 34.6631 91.13 34.0356C89.8763 33.4082 88.8531 32.5492 88.061 31.4594C87.2693 30.3693 86.6834 29.0895 86.304 27.6197C85.9243 26.1502 85.7181 24.5564 85.6851 22.8389ZM105.98 21.8481H85.6854C85.7841 20.0646 86.1141 18.4628 86.6751 17.0427C87.2363 15.6222 87.9704 14.4084 88.878 13.4013C89.7854 12.3939 90.8416 11.6261 92.046 11.0974C93.2504 10.569 94.5458 10.3047 95.9318 10.3047C97.5818 10.3047 99.0335 10.6104 100.288 11.2214C101.542 11.8325 102.589 12.6665 103.431 13.7233C104.273 14.7801 104.908 16.0105 105.337 17.414C105.766 18.8178 105.98 20.296 105.98 21.8481ZM127.513 17.439H128.503C128.503 14.5984 127.678 12.5342 126.028 11.2461C124.378 9.95797 122.134 9.31391 119.296 9.31391C117.712 9.31391 116.375 9.51225 115.286 9.90862C114.197 10.3047 113.306 10.8167 112.613 11.4441C111.92 12.0715 111.425 12.7653 111.128 13.525C110.831 14.2847 110.683 15.0114 110.683 15.7049C110.683 17.092 110.93 18.1985 111.425 19.0242C111.92 19.8499 112.696 20.494 113.752 20.9564C114.478 21.2864 115.303 21.5838 116.227 21.8484C117.151 22.1125 118.223 22.3932 119.444 22.6902C120.533 22.9549 121.606 23.2189 122.662 23.483C123.718 23.7473 124.65 24.1023 125.459 24.5481C126.267 24.9941 126.927 25.5638 127.439 26.2575C127.95 26.951 128.206 27.8594 128.206 28.9822C128.206 30.0723 127.95 30.997 127.439 31.7564C126.932 32.5122 126.264 33.1467 125.484 33.6146C124.692 34.0933 123.809 34.44 122.835 34.6547C121.862 34.8694 120.913 34.9768 119.989 34.9768C116.986 34.9768 114.684 34.308 113.084 32.9705C111.483 31.6328 110.683 29.5272 110.683 26.6536H109.693C109.693 29.8576 110.559 32.2025 112.292 33.6889C114.024 35.1751 116.59 35.9182 119.989 35.9182C121.078 35.9182 122.175 35.7942 123.281 35.5465C124.386 35.2988 125.376 34.8944 126.251 34.3327C127.118 33.779 127.846 33.0332 128.379 32.1531C128.924 31.2611 129.196 30.1713 129.196 28.8832C129.196 27.661 128.957 26.6703 128.478 25.9105C128 25.1511 127.373 24.5234 126.597 24.028C125.822 23.5326 124.947 23.1446 123.974 22.8639C122.995 22.5815 122.013 22.3089 121.028 22.0462C119.817 21.728 118.604 21.4143 117.39 21.1051C116.351 20.8407 115.386 20.527 114.495 20.1636C113.636 19.8003 112.952 19.2802 112.44 18.6031C111.928 17.9261 111.673 16.96 111.673 15.7049C111.673 15.4738 111.739 15.0608 111.871 14.4664C112.003 13.8717 112.316 13.269 112.811 12.6579C113.306 12.0472 114.065 11.5021 115.088 11.0231C116.111 10.5443 117.514 10.3047 119.296 10.3047C120.517 10.3047 121.631 10.437 122.637 10.7011C123.644 10.9654 124.51 11.3864 125.236 11.9645C125.962 12.5425 126.523 13.2773 126.919 14.1691C127.315 15.0611 127.513 16.1509 127.513 17.439V17.439ZM150.432 17.439H151.422C151.422 14.5984 150.597 12.5342 148.947 11.2461C147.297 9.95797 145.053 9.31391 142.214 9.31391C140.631 9.31391 139.294 9.51225 138.205 9.90862C137.116 10.3047 136.225 10.8167 135.532 11.4441C134.839 12.0715 134.344 12.7653 134.047 13.525C133.75 14.2847 133.602 15.0114 133.602 15.7049C133.602 17.092 133.849 18.1985 134.344 19.0242C134.839 19.8499 135.615 20.494 136.671 20.9564C137.397 21.2864 138.221 21.5838 139.145 21.8484C140.069 22.1125 141.142 22.3932 142.363 22.6902C143.452 22.9549 144.525 23.2189 145.581 23.483C146.637 23.7473 147.569 24.1023 148.377 24.5481C149.186 24.9941 149.846 25.5638 150.357 26.2575C150.869 26.951 151.125 27.8594 151.125 28.9822C151.125 30.0723 150.869 30.997 150.357 31.7564C149.85 32.5122 149.183 33.1466 148.402 33.6146C147.61 34.0933 146.727 34.44 145.754 34.6547C144.78 34.8694 143.832 34.9768 142.908 34.9768C139.904 34.9768 137.603 34.308 136.002 32.9705C134.402 31.6328 133.602 29.5272 133.602 26.6536H132.612C132.612 29.8576 133.478 32.2025 135.21 33.6889C136.943 35.1751 139.508 35.9182 142.908 35.9182C143.997 35.9182 145.094 35.7942 146.199 35.5465C147.305 35.2988 148.295 34.8944 149.17 34.3327C150.036 33.779 150.765 33.0332 151.298 32.1531C151.843 31.2611 152.115 30.1713 152.115 28.8832C152.115 27.661 151.875 26.6703 151.397 25.9105C150.919 25.1511 150.292 24.5234 149.516 24.028C148.74 23.5326 147.866 23.1446 146.893 22.8639C145.913 22.5815 144.932 22.3089 143.947 22.0462C142.736 21.728 141.523 21.4143 140.309 21.1051C139.269 20.8407 138.304 20.527 137.413 20.1636C136.555 19.8003 135.87 19.2802 135.359 18.6031C134.847 17.9261 134.591 16.96 134.591 15.7049C134.591 15.4738 134.657 15.0608 134.79 14.4664C134.922 13.8717 135.235 13.269 135.73 12.6579C136.225 12.0472 136.984 11.5021 138.007 11.0231C139.03 10.5443 140.432 10.3047 142.215 10.3047C143.436 10.3047 144.549 10.437 145.556 10.7011C146.562 10.9654 147.429 11.3864 148.155 11.9645C148.881 12.5425 149.442 13.2773 149.838 14.1691C150.234 15.0611 150.432 16.1509 150.432 17.439H150.432Z" fill="#FEFFFF"/>
<path d="M8.37414 40.2897V23.3464H29.5109V22.3553H8.37414V6.89812H30.8473V5.90735H7.38421V41.2805H31.0452V40.2897H8.37444H8.37414ZM50.1032 15.8157L41.3417 27.3591L32.7778 15.816H31.4908L40.7475 28.1025L30.5995 41.2802H31.7876L41.3411 28.845L50.9443 41.2802H52.1817L41.9846 28.1019L51.2907 15.8154H50.1029L50.1032 15.8157ZM55.1521 50V34.1467H55.251C55.8452 36.4586 57.0167 38.3165 58.7657 39.7203C60.5147 41.1238 62.7421 41.8258 65.448 41.8258C67.1971 41.8258 68.7482 41.4708 70.1012 40.7607C71.4542 40.0506 72.5844 39.0845 73.492 37.8624C74.3993 36.6403 75.0925 35.2202 75.5711 33.6017C76.0494 31.9835 76.2889 30.2824 76.2889 28.4992C76.2889 26.5833 76.0411 24.8162 75.5461 23.198C75.0512 21.5795 74.3334 20.1757 73.3931 18.9869C72.4524 17.7978 71.314 16.8727 69.9773 16.2126C68.641 15.5519 67.1311 15.2216 65.448 15.2216C64.161 15.2216 62.9649 15.4116 61.8594 15.7913C60.7539 16.1713 59.7723 16.7077 58.9142 17.4014C58.0512 18.1005 57.3 18.9275 56.6866 19.8537C56.0597 20.7951 55.5811 21.8272 55.251 22.9503H55.1521V15.8157H54.1621V50H55.1521V50ZM65.448 40.8841C62.3463 40.8841 59.8546 39.819 57.9736 37.6888C56.0927 35.5586 55.1521 32.495 55.1521 28.4986C55.1521 26.8471 55.3832 25.2783 55.8452 23.7921C56.3072 22.3059 56.9754 21.0012 57.8497 19.8784C58.7244 18.7553 59.8052 17.8635 61.092 17.2031C62.379 16.5424 63.8312 16.212 65.448 16.212C67.0981 16.212 68.542 16.5424 69.7794 17.2031C71.0169 17.8635 72.0401 18.7636 72.8485 19.903C73.6569 21.0425 74.2674 22.3473 74.6801 23.8168C75.0925 25.2866 75.2986 26.8471 75.2986 28.4986C75.2986 29.985 75.1091 31.4631 74.7294 32.9327C74.35 34.4025 73.7641 35.7236 72.9721 36.8963C72.1803 38.0685 71.1657 39.0263 69.928 39.7696C68.6903 40.5127 67.1971 40.8841 65.448 40.8841V40.8841ZM81.7338 41.2805V26.8637C81.7338 25.4766 81.9317 24.1222 82.328 22.8013C82.7237 21.4802 83.3343 20.3158 84.1593 19.3086C84.9844 18.3012 86.0319 17.5085 87.3026 16.9304C88.573 16.3524 90.0829 16.113 91.8319 16.212V15.2213C90.3137 15.1886 88.9857 15.3533 87.8472 15.7166C86.7084 16.08 85.7268 16.5754 84.9018 17.2031C84.0767 17.8305 83.4169 18.5653 82.9219 19.4077C82.4273 20.2487 82.0603 21.1586 81.8327 22.1076H81.7338V15.8157H80.7439V41.2808H81.7338V41.2805ZM93.0693 28.7463H114.354C114.421 26.9958 114.247 25.3116 113.835 23.6931C113.422 22.0746 112.762 20.6378 111.855 19.383C110.947 18.1279 109.776 17.1204 108.34 16.3607C106.905 15.601 105.197 15.2213 103.217 15.2213C101.798 15.2213 100.412 15.5186 99.0588 16.1133C97.7059 16.7077 96.5178 17.5745 95.4948 18.7139C94.4719 19.8534 93.6469 21.2489 93.02 22.9006C92.3931 24.5518 92.0794 26.4344 92.0794 28.5482C92.0794 30.4307 92.2939 32.1896 92.7229 33.8244C93.1519 35.4592 93.8118 36.8797 94.7028 38.0851C95.5941 39.2906 96.7409 40.2237 98.1432 40.8841C99.5455 41.5448 101.237 41.8585 103.217 41.8255C106.121 41.8255 108.563 41.0078 110.543 39.3733C112.523 37.7381 113.695 35.4346 114.058 32.4619H113.068C112.639 35.2695 111.541 37.3751 109.776 38.7786C108.01 40.1824 105.791 40.8841 103.118 40.8841C101.303 40.8841 99.7683 40.5704 98.5143 39.943C97.2605 39.3156 96.2373 38.4565 95.4452 37.3667C94.6535 36.2767 94.0676 34.9969 93.6882 33.5271C93.3085 32.0576 93.1023 30.4638 93.0693 28.7463ZM113.364 27.7555H93.0696C93.1683 25.972 93.4983 24.3701 94.0593 22.95C94.6205 21.5296 95.3546 20.3158 96.2623 19.3086C97.1696 18.3012 98.2258 17.5335 99.4302 17.0048C100.635 16.4764 101.93 16.212 103.316 16.212C104.966 16.212 106.418 16.5177 107.672 17.1288C108.926 17.7398 109.974 18.5739 110.815 19.6307C111.657 20.6875 112.292 21.9179 112.721 23.3214C113.15 24.7252 113.364 26.2033 113.364 27.7555ZM134.897 23.3464H135.887C135.887 20.5058 135.062 18.4416 133.412 17.1534C131.762 15.8653 129.518 15.2213 126.68 15.2213C125.096 15.2213 123.76 15.4196 122.67 15.816C121.582 16.212 120.691 16.7241 119.997 17.3515C119.305 17.9789 118.81 18.6726 118.513 19.4323C118.215 20.1921 118.067 20.9188 118.067 21.6122C118.067 22.9994 118.314 24.1058 118.81 24.9315C119.305 25.7573 120.08 26.4013 121.136 26.8637C121.862 27.1938 122.687 27.4911 123.611 27.7558C124.535 28.0198 125.608 28.3005 126.829 28.5976C127.918 28.8622 128.99 29.1263 130.046 29.3903C131.102 29.6547 132.034 30.0097 132.843 30.4554C133.652 30.9015 134.311 31.4712 134.823 32.1649C135.334 32.8583 135.59 33.7667 135.59 34.8895C135.59 35.9796 135.335 36.9044 134.823 37.6638C134.316 38.4196 133.648 39.054 132.868 39.5219C132.076 40.0007 131.193 40.3474 130.219 40.5621C129.246 40.7768 128.297 40.8841 127.373 40.8841C124.37 40.8841 122.068 40.2154 120.468 38.8779C118.867 37.5401 118.067 35.4346 118.067 32.561H117.077C117.077 35.7649 117.943 38.1098 119.676 39.5963C121.408 41.0824 123.974 41.8255 127.373 41.8255C128.462 41.8255 129.559 41.7015 130.665 41.4538C131.77 41.2061 132.761 40.8017 133.635 40.24C134.502 39.6863 135.23 38.9406 135.763 38.0605C136.308 37.1684 136.58 36.0786 136.58 34.7905C136.58 33.5684 136.341 32.5776 135.863 31.8179C135.384 31.0585 134.757 30.4307 133.981 29.9354C133.206 29.44 132.332 29.0519 131.358 28.7712C130.379 28.4889 129.397 28.2163 128.413 27.9535C127.201 27.6354 125.988 27.3217 124.774 27.0124C123.735 26.7481 122.77 26.4344 121.879 26.071C121.021 25.7076 120.336 25.1876 119.824 24.5105C119.313 23.8334 119.057 22.8673 119.057 21.6122C119.057 21.3812 119.123 20.9682 119.255 20.3738C119.387 19.7791 119.701 19.1763 120.196 18.5653C120.691 17.9545 121.449 17.4095 122.473 16.9304C123.496 16.4517 124.898 16.212 126.68 16.212C127.901 16.212 129.015 16.3444 130.021 16.6084C131.028 16.8727 131.894 17.2938 132.62 17.8718C133.346 18.4499 133.907 19.1846 134.303 20.0764C134.699 20.9685 134.897 22.0582 134.897 23.3464V23.3464ZM157.816 23.3464H158.806C158.806 20.5058 157.981 18.4416 156.331 17.1534C154.681 15.8653 152.437 15.2213 149.599 15.2213C148.015 15.2213 146.678 15.4196 145.589 15.816C144.5 16.212 143.609 16.7241 142.916 17.3515C142.223 17.9789 141.728 18.6726 141.431 19.4323C141.134 20.1921 140.986 20.9188 140.986 21.6122C140.986 22.9994 141.233 24.1058 141.728 24.9315C142.223 25.7573 142.999 26.4013 144.055 26.8637C144.781 27.1938 145.606 27.4911 146.53 27.7558C147.454 28.0198 148.526 28.3005 149.747 28.5976C150.836 28.8622 151.909 29.1263 152.965 29.3903C154.021 29.6547 154.953 30.0097 155.762 30.4554C156.57 30.9015 157.23 31.4712 157.742 32.1649C158.253 32.8583 158.509 33.7667 158.509 34.8895C158.509 35.9796 158.253 36.9044 157.742 37.6638C157.234 38.4195 156.567 39.054 155.787 39.5219C154.994 40.0007 154.112 40.3474 153.138 40.5621C152.165 40.7768 151.216 40.8841 150.292 40.8841C147.289 40.8841 144.987 40.2154 143.387 38.8779C141.786 37.5401 140.986 35.4346 140.986 32.561H139.996C139.996 35.7649 140.862 38.1098 142.595 39.5963C144.327 41.0824 146.893 41.8255 150.292 41.8255C151.381 41.8255 152.478 41.7015 153.584 41.4538C154.689 41.2061 155.679 40.8017 156.554 40.24C157.421 39.6863 158.149 38.9406 158.682 38.0605C159.227 37.1684 159.499 36.0786 159.499 34.7905C159.499 33.5684 159.26 32.5776 158.781 31.8179C158.303 31.0585 157.676 30.4307 156.9 29.9354C156.125 29.44 155.25 29.0519 154.277 28.7712C153.298 28.4889 152.316 28.2163 151.331 27.9535C150.12 27.6354 148.907 27.3217 147.693 27.0124C146.653 26.7481 145.688 26.4344 144.797 26.071C143.939 25.7076 143.254 25.1876 142.743 24.5105C142.231 23.8334 141.976 22.8673 141.976 21.6122C141.976 21.3812 142.042 20.9682 142.174 20.3738C142.306 19.7791 142.619 19.1763 143.114 18.5653C143.609 17.9545 144.368 17.4095 145.391 16.9304C146.414 16.4517 147.817 16.212 149.599 16.212C150.82 16.212 151.934 16.3444 152.94 16.6084C153.947 16.8727 154.813 17.2938 155.539 17.8718C156.265 18.4499 156.826 19.1846 157.222 20.0764C157.618 20.9685 157.816 22.0582 157.816 23.3464H157.816Z" fill="#F64C72"/>
</svg>
