<svg width="56" height="50" viewBox="0 0 56 50" fill="none" xmlns="http://www.w3.org/2000/svg">
<path d="M9.3385 3.84613L13.4903 45.2625L32.4123 50L51.2588 45.2625L55.4923 3.84613H9.3385ZM46.7673 13.6705L46.4654 16.2888L46.3584 17.3705H24.2534L24.7692 22.5961H45.8489L45.6413 23.9441L44.3077 37.3798L44.2008 38.2784L32.4374 41.1409V41.1575H32.3619L32.3431 41.1631V41.1575H32.3368L20.4728 38.2729L19.7557 30.2515H25.4864L25.8953 34.3121L32.3368 35.8487H32.3619L38.7783 34.3176L39.4954 27.7385H32.3431V27.733H19.4537L18.0195 13.6705L17.9125 12.3225H46.868L46.7673 13.6705V13.6705Z" fill="#F64C72"/>
<path d="M0.107697 0L4.25947 41.4164L23.1815 46.1538L42.028 41.4164L46.2615 0H0.107697ZM37.5365 9.82433L37.2346 12.4427L37.1276 13.5244H15.0226L15.5384 18.75H36.6181L36.4105 20.098L35.0769 33.5336L34.97 34.4323L23.2066 37.2947V37.3114H23.1311L23.1123 37.3169V37.3114H23.106L11.242 34.4268L10.5249 26.4053H16.2556L16.6644 30.466L23.106 32.0026H23.1311L29.5475 30.4715L30.2646 23.8924H23.1123V23.8868H10.2229L8.78867 9.82433L8.68173 8.47633H37.6372L37.5365 9.82433V9.82433Z" fill="#FEFFFF"/>
</svg>
