<svg width="58" height="50" viewBox="0 0 58 50" fill="none" xmlns="http://www.w3.org/2000/svg">
<g clip-path="url(#clip0)">
<path d="M12.2273 4.54547H57.6818V50H12.2273V4.54547ZM53.9583 39.1591C53.6269 37.0852 52.2765 35.3428 48.2708 33.7178C46.8769 33.0644 45.3277 32.6099 44.8674 31.5587C44.6951 30.9337 44.6686 30.5928 44.7803 30.2235C45.0644 29 46.5133 28.6326 47.6496 28.9735C48.3883 29.2008 49.0701 29.769 49.4981 30.678C51.4565 29.3977 51.4565 29.3977 52.822 28.5474C52.3106 27.7519 52.0568 27.4091 51.7121 27.0701C50.519 25.7349 48.9299 25.053 46.3447 25.1118L45.0095 25.2803C43.7292 25.5928 42.5095 26.2746 41.7708 27.1837C39.6118 29.6288 40.2349 33.8902 42.8485 35.6515C45.4337 37.5833 49.214 38.0076 49.697 39.8277C50.1515 42.0436 48.0493 42.7538 45.9735 42.4981C44.4375 42.1572 43.5871 41.3883 42.6496 39.9678L39.1837 41.9583C39.5815 42.8674 40.036 43.2633 40.7178 44.0587C44.0133 47.3845 52.2519 47.214 53.7311 42.1572C53.786 41.9867 54.1856 40.822 53.8712 39.0322L53.9583 39.1591V39.1591ZM36.9451 25.4375H32.6875C32.6875 29.108 32.6705 32.7557 32.6705 36.4318C32.6705 38.7652 32.7898 40.9072 32.4091 41.5663C31.7841 42.8712 30.1743 42.7046 29.4432 42.4754C28.6932 42.1042 28.3125 41.5928 27.8712 40.8561C27.7519 40.6572 27.6629 40.4849 27.6307 40.4849L24.1743 42.6155C24.7519 43.8087 25.5947 44.8352 26.6818 45.4886C28.3012 46.4546 30.4773 46.7671 32.7557 46.2557C34.2387 45.8277 35.5171 44.947 36.1856 43.5833C37.1515 41.822 36.947 39.6629 36.9375 37.2462C36.9602 33.3561 36.9375 29.464 36.9375 25.5436L36.9451 25.4375V25.4375Z" fill="#F64C72"/>
</g>
<g clip-path="url(#clip1)">
<path d="M0.863647 0H46.3182V45.4545H0.863647V0ZM42.5947 34.6136C42.2633 32.5398 40.9129 30.7973 36.9072 29.1723C35.5133 28.5189 33.964 28.0644 33.5038 27.0132C33.3314 26.3882 33.3049 26.0473 33.4167 25.678C33.7008 24.4545 35.1496 24.0871 36.286 24.428C37.0246 24.6553 37.7064 25.2235 38.1345 26.1326C40.0928 24.8523 40.0928 24.8523 41.4583 24.0019C40.947 23.2064 40.6932 22.8636 40.3485 22.5246C39.1553 21.1894 37.5663 20.5076 34.9811 20.5663L33.6458 20.7348C32.3655 21.0473 31.1458 21.7292 30.4072 22.6383C28.2481 25.0833 28.8712 29.3447 31.4849 31.1061C34.0701 33.0379 37.8504 33.4621 38.3333 35.2822C38.7879 37.4981 36.6856 38.2083 34.6099 37.9526C33.0739 37.6117 32.2235 36.8428 31.286 35.4223L27.8201 37.4129C28.2178 38.322 28.6724 38.7178 29.3542 39.5132C32.6496 42.839 40.8883 42.6685 42.3674 37.6117C42.4223 37.4413 42.822 36.2765 42.5076 34.4867L42.5947 34.6136V34.6136ZM25.5814 20.892H21.3239C21.3239 24.5625 21.3068 28.2102 21.3068 31.8864C21.3068 34.2197 21.4261 36.3617 21.0455 37.0208C20.4205 38.3257 18.8106 38.1591 18.0796 37.9299C17.3296 37.5587 16.9489 37.0473 16.5076 36.3106C16.3883 36.1117 16.2993 35.9394 16.2671 35.9394L12.8106 38.0701C13.3883 39.2632 14.2311 40.2898 15.3182 40.9432C16.9375 41.9091 19.1136 42.2216 21.3921 41.7102C22.875 41.2822 24.1534 40.4015 24.822 39.0379C25.7879 37.2765 25.5833 35.1174 25.5739 32.7008C25.5966 28.8106 25.5739 24.9186 25.5739 20.9981L25.5814 20.892V20.892Z" fill="#FEFFFF"/>
</g>
<defs>
<clipPath id="clip0">
<rect width="45.4545" height="45.4545" fill="white" transform="translate(12.2273 4.54547)"/>
</clipPath>
<clipPath id="clip1">
<rect width="45.4545" height="45.4545" fill="white" transform="translate(0.863647)"/>
</clipPath>
</defs>
</svg>
