<svg width="32" height="33" viewBox="0 0 32 33" fill="none" xmlns="http://www.w3.org/2000/svg">
<path d="M11.718 26.3821L10.098 27.9921C9.41937 28.6601 8.50529 29.0345 7.55303 29.0345C6.60077 29.0345 5.68668 28.6601 5.00803 27.9921C4.67713 27.6644 4.41447 27.2744 4.23521 26.8446C4.05595 26.4148 3.96365 25.9537 3.96365 25.4881C3.96365 25.0224 4.05595 24.5613 4.23521 24.1315C4.41447 23.7017 4.67713 23.3117 5.00803 22.9841L10.968 17.0741C12.202 15.8481 14.526 14.0441 16.22 15.7241C16.4023 15.9184 16.6219 16.0741 16.8657 16.1818C17.1095 16.2894 17.3724 16.3469 17.6389 16.3507C17.9054 16.3545 18.1699 16.3045 18.4166 16.2039C18.6634 16.1032 18.8873 15.9539 19.0751 15.7648C19.2629 15.5756 19.4106 15.3506 19.5095 15.1032C19.6084 14.8557 19.6564 14.5909 19.6507 14.3244C19.645 14.058 19.5857 13.7955 19.4763 13.5524C19.3669 13.3094 19.2097 13.091 19.014 12.9101C16.138 10.0541 11.882 10.5821 8.17602 14.2601L2.21603 20.1721C1.51181 20.8663 0.953111 21.6941 0.572613 22.6069C0.192115 23.5197 -0.00254355 24.4991 2.50932e-05 25.4881C-0.00243188 26.477 0.192277 27.4564 0.572769 28.3692C0.95326 29.282 1.5119 30.1097 2.21603 30.8041C3.63542 32.212 5.55481 33.0001 7.55403 32.9961C9.48803 32.9961 11.422 32.2661 12.892 30.8041L14.514 29.1941C14.699 29.0111 14.846 28.7935 14.9467 28.5536C15.0473 28.3137 15.0996 28.0563 15.1005 27.7961C15.1015 27.536 15.051 27.2782 14.9521 27.0376C14.8532 26.797 14.7077 26.5783 14.524 26.3941C14.1528 26.0218 13.6493 25.8116 13.1235 25.8093C12.5977 25.8071 12.0925 26.013 11.718 26.3821V26.3821ZM29.782 3.41406C26.688 0.346057 22.364 0.180057 19.504 3.02006L17.486 5.02406C17.1131 5.3943 16.9026 5.89751 16.9007 6.42299C16.8988 6.94846 17.1058 7.45316 17.476 7.82606C17.8463 8.19895 18.3495 8.4095 18.875 8.41137C19.4004 8.41325 19.9051 8.2063 20.278 7.83606L22.298 5.83406C23.778 4.36206 25.72 4.97206 26.99 6.22806C27.662 6.89806 28.034 7.78606 28.034 8.73206C28.034 9.67806 27.662 10.5661 26.99 11.2341L20.63 17.5421C17.722 20.4241 16.358 19.0741 15.776 18.4961C15.5914 18.3127 15.3724 18.1676 15.1317 18.0689C14.891 17.9701 14.6331 17.9198 14.373 17.9207C14.1128 17.9217 13.8553 17.9738 13.6153 18.0743C13.3752 18.1747 13.1573 18.3214 12.974 18.5061C12.7907 18.6907 12.6455 18.9096 12.5468 19.1504C12.4481 19.3911 12.3978 19.6489 12.3987 19.9091C12.3996 20.1693 12.4518 20.4268 12.5522 20.6668C12.6527 20.9068 12.7994 21.1247 12.984 21.3081C14.32 22.6321 15.844 23.2881 17.44 23.2881C19.394 23.2881 21.46 22.3041 23.426 20.3541L29.786 14.0481C30.4887 13.3527 31.0463 12.5247 31.4263 11.6122C31.8064 10.6996 32.0014 9.72061 32 8.73206C32.0018 7.74279 31.8066 6.76306 31.4258 5.85001C31.045 4.93697 30.4862 4.10888 29.782 3.41406V3.41406Z" fill="#FEFFFF"/>
</svg>
