<svg width="49" height="50" viewBox="0 0 49 50" fill="none" xmlns="http://www.w3.org/2000/svg">
<path d="M31.3359 9.0171C29.7341 8.75343 27.3895 8.63194 25.798 8.63969C24.3062 8.64142 22.8173 8.76766 21.3466 9.0171C17.4053 9.70644 16.6875 11.1454 16.6875 13.8028V16.9118H26.3382V18.2904H13.5527C9.97161 18.2904 7.06519 22.5704 7.03676 27.8653V27.9412C7.03551 28.8669 7.12586 29.7905 7.30646 30.6985C8.10695 34.6863 10.6006 37.5919 13.5527 37.5919H15.3088V32.9389C15.3088 30.2418 17.1045 27.7731 20.048 27.2432L20.8985 27.1372H31.3359C31.7743 27.1389 32.2109 27.081 32.6336 26.9649C33.6001 26.7068 34.4537 26.1355 35.0609 25.3405C35.668 24.5455 35.9944 23.5716 35.989 22.5712V13.8028C35.989 11.3109 33.8624 9.43157 31.3359 9.0171ZM21.076 14.973C20.7283 14.9742 20.3881 14.8721 20.0986 14.6797C19.809 14.4873 19.5831 14.2132 19.4495 13.8922C19.3159 13.5713 19.2806 13.2179 19.3482 12.8768C19.4157 12.5358 19.583 12.2225 19.8288 11.9766C20.0747 11.7308 20.388 11.5635 20.729 11.496C21.0701 11.4284 21.4235 11.4637 21.7444 11.5973C22.0654 11.7309 22.3395 11.9568 22.5319 12.2464C22.7243 12.5359 22.8264 12.8761 22.8252 13.2238C22.8253 13.4535 22.7801 13.681 22.6923 13.8933C22.6044 14.1056 22.4756 14.2985 22.3131 14.4609C22.1507 14.6234 21.9578 14.7522 21.7455 14.8401C21.5332 14.9279 21.3057 14.9731 21.076 14.973V14.973Z" fill="#F64C72"/>
<path d="M45.233 24.5806C44.311 20.909 41.9233 18.2904 39.1237 18.2904H37.5977V22.379C37.5977 25.7887 35.3574 28.2574 32.6224 28.6805C32.3462 28.7233 32.067 28.7449 31.7875 28.7451H21.3474C20.9046 28.7447 20.4635 28.8011 20.0351 28.9131C18.1127 29.418 16.6875 31.0173 16.6875 33.0914V41.8606C16.6875 44.3595 19.1984 45.8243 21.6619 46.5403C24.6097 47.3977 27.8212 47.5528 31.3489 46.5403C33.6917 45.8708 35.989 44.5171 35.989 41.8606V38.9706H26.3382V37.5919H39.1237C41.6605 37.5919 43.8586 35.4437 44.9357 32.309C45.4087 30.9016 45.6466 29.4259 45.6397 27.9411C45.6421 26.8085 45.5055 25.6799 45.233 24.5806ZM31.5522 40.6939C31.8999 40.6927 32.2401 40.7948 32.5296 40.9872C32.8192 41.1796 33.0451 41.4537 33.1787 41.7746C33.3123 42.0956 33.3476 42.449 33.28 42.7901C33.2125 43.1311 33.0452 43.4444 32.7994 43.6902C32.5535 43.9361 32.2402 44.1034 31.8992 44.1709C31.5581 44.2384 31.2047 44.2032 30.8838 44.0696C30.5628 43.936 30.2887 43.7101 30.0963 43.4205C29.9039 43.1309 29.8018 42.7908 29.803 42.4431C29.8029 42.2134 29.8481 41.9858 29.9359 41.7736C30.0238 41.5613 30.1526 41.3684 30.3151 41.206C30.4775 41.0435 30.6704 40.9147 30.8827 40.8268C31.095 40.739 31.3225 40.6938 31.5522 40.6939Z" fill="#F64C72"/>
<path d="M27.6594 3.13478C26.0576 2.87111 23.713 2.74961 22.1215 2.75737C20.6298 2.75909 19.1408 2.88534 17.6701 3.13478C13.7288 3.82412 13.011 5.26311 13.011 7.92051V11.0294H22.6617V12.4081H9.87624C6.29513 12.4081 3.38871 16.688 3.36027 21.983V22.0588C3.35903 22.9846 3.44937 23.9082 3.62998 24.8162C4.43047 28.804 6.92415 31.7096 9.87624 31.7096H11.6323V27.0565C11.6323 24.3595 13.4281 21.8908 16.3715 21.3609L17.222 21.2549H27.6594C28.0978 21.2566 28.5344 21.1986 28.9571 21.0826C29.9236 20.8245 30.7772 20.2532 31.3844 19.4582C31.9915 18.6631 32.3179 17.6892 32.3125 16.6889V7.92051C32.3125 5.42855 30.1859 3.54925 27.6594 3.13478ZM17.3995 9.09066C17.0518 9.09186 16.7117 8.98978 16.4221 8.79737C16.1325 8.60496 15.9066 8.33089 15.773 8.00992C15.6394 7.68895 15.6042 7.33554 15.6717 6.99449C15.7392 6.65345 15.9065 6.34015 16.1524 6.09431C16.3982 5.84848 16.7115 5.68119 17.0525 5.61365C17.3936 5.54612 17.747 5.58139 18.068 5.71498C18.3889 5.84858 18.663 6.07448 18.8554 6.36405C19.0478 6.65362 19.1499 6.99381 19.1487 7.34147C19.1488 7.57121 19.1037 7.79872 19.0158 8.01099C18.9279 8.22326 18.7991 8.41614 18.6366 8.57859C18.4742 8.74104 18.2813 8.86988 18.069 8.95774C17.8568 9.04561 17.6292 9.09078 17.3995 9.09066V9.09066Z" fill="#FEFFFF"/>
<path d="M41.5565 18.6983C40.6345 15.0267 38.2468 12.4081 35.4473 12.4081H33.9212V16.4967C33.9212 19.9064 31.6809 22.375 28.9459 22.7981C28.6697 22.841 28.3905 22.8626 28.111 22.8628H17.6709C17.2281 22.8623 16.7871 22.9188 16.3586 23.0308C14.4362 23.5357 13.011 25.135 13.011 27.209V35.9783C13.011 38.4771 15.5219 39.942 17.9855 40.658C20.9332 41.5154 24.1447 41.6705 27.6724 40.658C30.0153 39.9885 32.3125 38.6348 32.3125 35.9783V33.0882H22.6618V31.7096H35.4473C37.984 31.7096 40.1821 29.5614 41.2592 26.4266C41.7322 25.0193 41.9701 23.5435 41.9632 22.0588C41.9656 20.9262 41.8291 19.7976 41.5565 18.6983ZM27.8757 34.8116C28.2234 34.8104 28.5636 34.9125 28.8531 35.1049C29.1427 35.2973 29.3686 35.5713 29.5022 35.8923C29.6358 36.2133 29.6711 36.5667 29.6035 36.9077C29.536 37.2488 29.3687 37.5621 29.1229 37.8079C28.8771 38.0538 28.5637 38.221 28.2227 38.2886C27.8817 38.3561 27.5282 38.3208 27.2073 38.1873C26.8863 38.0537 26.6122 37.8278 26.4198 37.5382C26.2274 37.2486 26.1253 36.9084 26.1265 36.5608C26.1264 36.331 26.1716 36.1035 26.2595 35.8912C26.3473 35.679 26.4762 35.4861 26.6386 35.3236C26.8011 35.1612 26.9939 35.0324 27.2062 34.9445C27.4185 34.8566 27.646 34.8115 27.8757 34.8116Z" fill="#FEFFFF"/>
</svg>
