<svg width="52" height="50" viewBox="0 0 52 50" fill="none" xmlns="http://www.w3.org/2000/svg">
<path d="M42.7608 20.5895C42.3068 20.4344 41.8496 20.29 41.3891 20.1562C41.4655 19.8455 41.5359 19.533 41.6004 19.2188C42.6391 14.1673 41.96 10.0977 39.642 8.75799C37.4225 7.47248 33.7826 8.81215 30.1107 12.0153C29.7497 12.3313 29.3961 12.6568 29.0498 12.9918C28.819 12.7693 28.5823 12.5515 28.3396 12.3384C24.4911 8.91335 20.6336 7.47071 18.3183 8.81481C16.0988 10.103 15.4392 13.9284 16.374 18.7163C16.4676 19.1897 16.5726 19.6612 16.6892 20.1305C16.1586 20.2809 15.6326 20.4467 15.1116 20.6277C10.6052 22.2035 7.72348 24.6742 7.72348 27.2363C7.72348 29.8837 10.8165 32.5382 15.5156 34.1477C15.8967 34.2773 16.2814 34.3978 16.6697 34.5091C16.5436 35.0115 16.432 35.5196 16.335 36.0334C15.4472 40.7386 16.1397 44.4735 18.3547 45.7537C20.6425 47.0756 24.4804 45.7173 28.2215 42.4414C28.5175 42.1822 28.8134 41.9084 29.1093 41.6202C29.4834 41.9818 29.8681 42.3328 30.2634 42.6731C33.8856 45.7963 37.4625 47.0579 39.6739 45.7741C41.96 44.4478 42.7031 40.435 41.738 35.5531C41.6641 35.1802 41.5788 34.7997 41.4824 34.4114C41.7522 34.3315 42.0165 34.2489 42.2751 34.1637C47.158 32.5417 50.3389 29.9192 50.3389 27.239C50.3371 24.6644 47.363 22.1777 42.7608 20.5895V20.5895ZM31.3084 13.3913C34.4538 10.6472 37.3941 9.5641 38.7347 10.3382C40.1613 11.163 40.7162 14.4886 39.8195 18.8503C39.7603 19.1344 39.6964 19.4176 39.6278 19.6999C37.7507 19.273 35.8472 18.9716 33.93 18.7979C32.8323 17.2167 31.6289 15.7114 30.3282 14.2924C30.6467 13.9835 30.9728 13.6831 31.3066 13.3913H31.3084ZM20.306 29.4256C20.6913 30.1713 21.0941 30.9079 21.5143 31.6353C21.9422 32.3775 22.3882 33.1087 22.8522 33.829C21.533 33.6856 20.2221 33.4743 18.9247 33.196C19.3011 31.978 19.7645 30.7129 20.306 29.4256V29.4256ZM20.306 25.1349C19.7734 23.8752 19.3224 22.6358 18.9522 21.4391C20.1684 21.1665 21.4646 20.9437 22.8158 20.775C22.363 21.4817 21.9274 22.1987 21.509 22.9261C21.0905 23.6535 20.6887 24.3898 20.3034 25.1349H20.306ZM21.2737 27.2807C21.8348 26.1106 22.4391 24.963 23.0866 23.8379C23.7335 22.7134 24.4221 21.6146 25.1525 20.5415C26.4202 20.4457 27.7199 20.3951 29.033 20.3951C30.346 20.3951 31.6537 20.4457 32.9206 20.5424C33.6432 21.6131 34.3277 22.708 34.974 23.8272C35.6203 24.9464 36.2326 26.0887 36.8108 27.2541C36.2403 28.4283 35.6295 29.5807 34.9784 30.7111C34.3327 31.8356 33.6521 32.9377 32.9365 34.0172C31.6715 34.106 30.362 34.1548 29.0303 34.1548C27.6986 34.1548 26.414 34.1131 25.172 34.0323C24.4363 32.9557 23.7421 31.8522 23.0892 30.7218C22.4364 29.5913 21.8304 28.4443 21.2711 27.2807H21.2737ZM36.5543 31.6229C36.9834 30.8783 37.3953 30.124 37.7901 29.3599C38.3312 30.5869 38.8089 31.8409 39.2212 33.117C37.9085 33.4126 36.5812 33.6393 35.2448 33.7962C35.6958 33.0806 36.1323 32.3562 36.5543 31.6229V31.6229ZM37.7723 25.1358C37.3793 24.3871 36.9706 23.6473 36.5463 22.9164C36.132 22.1955 35.7002 21.4835 35.251 20.7804C36.6102 20.9526 37.9143 21.1816 39.1368 21.4613C38.7438 22.7082 38.2884 23.9346 37.7723 25.1358V25.1358ZM29.0507 15.5966C29.9372 16.5653 30.7743 17.578 31.5587 18.631C29.8808 18.5511 28.2017 18.5511 26.5214 18.631C27.3497 17.5355 28.1976 16.519 29.0507 15.5966V15.5966ZM19.2345 10.3924C20.6603 9.56499 23.8128 10.7475 27.1358 13.7012C27.3479 13.8903 27.5619 14.0882 27.775 14.2933C26.4676 15.7121 25.2558 17.2161 24.1475 18.7953C22.2345 18.9676 20.3348 19.2642 18.4603 19.6831C18.352 19.2475 18.2544 18.8089 18.1674 18.3674C17.3639 14.2631 17.8957 11.1692 19.2345 10.3924ZM17.1562 32.7512C16.8011 32.65 16.4504 32.5402 16.1042 32.4219C14.0267 31.7116 12.3107 30.7848 11.1326 29.7754C10.0779 28.8707 9.54344 27.9679 9.54344 27.2363C9.54344 25.6818 11.857 23.6985 15.7153 22.3535C16.2 22.1848 16.6889 22.0307 17.1819 21.891C17.755 23.7325 18.4489 25.5342 19.2593 27.2843C18.4393 29.0585 17.7367 30.8848 17.1562 32.7512V32.7512ZM27.0221 41.0671C25.3682 42.516 23.7116 43.5431 22.2512 44.0607C20.939 44.525 19.8941 44.5383 19.2629 44.1735C17.9188 43.3967 17.3595 40.3968 18.1221 36.3734C18.2126 35.8999 18.3162 35.4264 18.4328 34.9529C20.3261 35.3608 22.2448 35.6393 24.1759 35.7866C25.295 37.374 26.5168 38.8865 27.8336 40.3143C27.569 40.5744 27.2982 40.8247 27.0221 41.0671ZM29.1013 39.0057C28.2384 38.0726 27.3772 37.0401 26.5374 35.9304C27.3536 35.9624 28.1845 35.9783 29.0303 35.9783C29.8985 35.9783 30.7579 35.9597 31.6049 35.9215C30.8233 36.9914 29.9877 38.0208 29.1013 39.0057V39.0057ZM40.156 41.5439C39.9021 42.9146 39.3916 43.829 38.7604 44.1948C37.4172 44.9742 34.5452 43.9613 31.4486 41.2899C31.0935 40.9846 30.7384 40.657 30.3771 40.3134C31.6682 38.88 32.8614 37.3615 33.9486 35.7679C35.8904 35.6034 37.8185 35.3053 39.7192 34.8757C39.8062 35.2273 39.8832 35.5717 39.95 35.9091C40.3771 38.0664 40.4383 40.0178 40.156 41.5439V41.5439ZM41.7007 32.4316C41.4681 32.5089 41.2284 32.5835 40.9852 32.6562C40.3892 30.8061 39.6681 28.9985 38.827 27.2461C39.6366 25.5171 40.3294 23.7357 40.9009 21.9141C41.3368 22.041 41.7602 22.1742 42.1677 22.3153C46.1113 23.6754 48.5172 25.6889 48.5172 27.2363C48.5172 28.8876 45.9186 31.0307 41.7007 32.4316V32.4316Z" fill="#F64C72"/>
<path d="M29.0303 31.0502C29.7859 31.0527 30.5251 30.8309 31.1546 30.4129C31.784 29.9949 32.2752 29.3996 32.566 28.7023C32.8569 28.0049 32.9343 27.237 32.7884 26.4956C32.6425 25.7543 32.2799 25.0729 31.7465 24.5378C31.2131 24.0027 30.5329 23.6379 29.7921 23.4896C29.0512 23.3412 28.283 23.4161 27.5847 23.7047C26.8865 23.9932 26.2895 24.4825 25.8695 25.1106C25.4495 25.7386 25.2253 26.4772 25.2253 27.2327C25.2242 27.7333 25.3218 28.2292 25.5125 28.692C25.7032 29.1548 25.9833 29.5755 26.3366 29.93C26.69 30.2846 27.1098 30.566 27.572 30.7582C28.0342 30.9504 28.5297 31.0496 29.0303 31.0502Z" fill="#F64C72"/>
<path d="M36.7002 16.044C36.2462 15.889 35.789 15.7446 35.3285 15.6108C35.4049 15.3001 35.4753 14.9876 35.5398 14.6733C36.5785 9.62182 35.8994 5.55222 33.5814 4.21255C31.3619 2.92704 27.722 4.26671 24.0501 7.46983C23.6891 7.78588 23.3355 8.1114 22.9892 8.44639C22.7584 8.22385 22.5217 8.00605 22.279 7.79298C18.4304 4.36791 14.573 2.92526 12.2577 4.26937C10.0382 5.55754 9.3786 9.383 10.3134 14.1708C10.407 14.6443 10.512 15.1157 10.6286 15.5851C10.098 15.7355 9.57195 15.9013 9.05101 16.0822C4.54462 17.658 1.66287 20.1287 1.66287 22.6909C1.66287 25.3383 4.75591 27.9927 9.45495 29.6023C9.83611 29.7319 10.2208 29.8523 10.6091 29.9636C10.483 30.4661 10.3714 30.9742 10.2744 31.4879C9.38659 36.1932 10.0791 39.9281 12.2941 41.2083C14.5819 42.5302 18.4198 41.1719 22.1609 37.896C22.4568 37.6367 22.7528 37.363 23.0487 37.0748C23.4228 37.4364 23.8075 37.7874 24.2028 38.1277C27.825 41.2509 31.4019 42.5124 33.6133 41.2287C35.8994 39.9024 36.6425 35.8896 35.6774 31.0076C35.6034 30.6348 35.5182 30.2542 35.4217 29.866C35.6916 29.7861 35.9559 29.7035 36.2145 29.6183C41.0973 27.9963 44.2783 25.3738 44.2783 22.6935C44.2765 20.119 41.3024 17.6323 36.7002 16.044V16.044ZM25.2477 8.8459C28.3932 6.10176 31.3335 5.01866 32.6741 5.79281C34.1007 6.61756 34.6556 9.9432 33.7589 14.3049C33.6997 14.589 33.6358 14.8722 33.5672 15.1545C31.6901 14.7275 29.7866 14.4262 27.8694 14.2525C26.7717 12.6712 25.5683 11.166 24.2676 9.747C24.586 9.43805 24.9122 9.13768 25.246 8.8459H25.2477ZM14.2454 24.8802C14.6307 25.6259 15.0335 26.3625 15.4537 27.0899C15.8816 27.832 16.3276 28.5633 16.7916 29.2836C15.4724 29.1401 14.1615 28.9289 12.864 28.6506C13.2405 27.4325 13.7039 26.1674 14.2454 24.8802V24.8802ZM14.2454 20.5895C13.7128 19.3297 13.2618 18.0904 12.8916 16.8937C14.1078 16.6211 15.404 16.3983 16.7552 16.2296C16.3024 16.9363 15.8668 17.6533 15.4484 18.3807C15.0299 19.1081 14.6281 19.8444 14.2428 20.5895H14.2454ZM15.2131 22.7353C15.7742 21.5652 16.3785 20.4176 17.026 19.2924C17.6729 18.1679 18.3615 17.0691 19.0918 15.9961C20.3596 15.9002 21.6593 15.8496 22.9724 15.8496C24.2854 15.8496 25.5931 15.9002 26.86 15.997C27.5826 17.0677 28.2671 18.1626 28.9134 19.2818C29.5597 20.401 30.172 21.5433 30.7502 22.7086C30.1797 23.8829 29.5689 25.0352 28.9178 26.1657C28.2721 27.2902 27.5915 28.3922 26.8759 29.4718C25.6108 29.5606 24.3014 29.6094 22.9697 29.6094C21.638 29.6094 20.3534 29.5677 19.1114 29.4869C18.3757 28.4103 17.6815 27.3068 17.0286 26.1763C16.3758 25.0459 15.7698 23.8989 15.2105 22.7353H15.2131ZM30.4937 27.0774C30.9228 26.3329 31.3347 25.5786 31.7295 24.8145C32.2706 26.0415 32.7483 27.2955 33.1606 28.5716C31.8479 28.8672 30.5206 29.0939 29.1842 29.2507C29.6352 28.5352 30.0717 27.8107 30.4937 27.0774V27.0774ZM31.7117 20.5904C31.3187 19.8417 30.91 19.1019 30.4857 18.3709C30.0714 17.65 29.6396 16.938 29.1904 16.2349C30.5496 16.4072 31.8537 16.6362 33.0762 16.9159C32.6832 18.1628 32.2278 19.3892 31.7117 20.5904V20.5904ZM22.9901 11.0512C23.8766 12.0198 24.7137 13.0326 25.4981 14.0856C23.8202 14.0057 22.1411 14.0057 20.4608 14.0856C21.2891 12.9901 22.1369 11.9736 22.9901 11.0512V11.0512ZM13.1739 5.84696C14.5997 5.01955 17.7522 6.20207 21.0752 9.15573C21.2873 9.34483 21.5013 9.54281 21.7144 9.74788C20.407 11.1667 19.1952 12.6706 18.0869 14.2498C16.1739 14.4222 14.2742 14.7187 12.3997 15.1376C12.2914 14.702 12.1938 14.2634 12.1068 13.8219C11.3033 9.7177 11.8351 6.62377 13.1739 5.84696ZM11.0956 28.2058C10.7405 28.1046 10.3898 27.9948 10.0436 27.8764C7.96614 27.1662 6.25005 26.2394 5.07196 25.2299C4.01728 24.3253 3.48283 23.4224 3.48283 22.6909C3.48283 21.1364 5.79639 19.1531 9.6547 17.8081C10.1394 17.6394 10.6283 17.4852 11.1213 17.3455C11.6943 19.1871 12.3883 20.9887 13.1987 22.7388C12.3787 24.5131 11.6761 26.3394 11.0956 28.2058V28.2058ZM20.9615 36.5217C19.3076 37.9705 17.651 38.9977 16.1906 39.5153C14.8784 39.9796 13.8335 39.9929 13.2023 39.628C11.8582 38.8512 11.2989 35.8514 12.0615 31.828C12.152 31.3545 12.2556 30.881 12.3722 30.4075C14.2654 30.8153 16.1842 31.0939 18.1153 31.2411C19.2344 32.8286 20.4562 34.341 21.773 35.7688C21.5084 36.029 21.2376 36.2793 20.9615 36.5217ZM23.0407 34.4602C22.1778 33.5272 21.3166 32.4947 20.4768 31.385C21.293 31.4169 22.1239 31.4329 22.9697 31.4329C23.8379 31.4329 24.6973 31.4143 25.5443 31.3761C24.7627 32.446 23.9271 33.4754 23.0407 34.4602V34.4602ZM34.0954 36.9984C33.8415 38.3692 33.331 39.2836 32.6998 39.6493C31.3566 40.4288 28.4846 39.4158 25.388 36.7445C25.0329 36.4391 24.6778 36.1115 24.3165 35.7679C25.6076 34.3346 26.8008 32.816 27.888 31.2225C29.8298 31.058 31.7579 30.7599 33.6586 30.3303C33.7456 30.6818 33.8226 31.0263 33.8894 31.3636C34.3165 33.521 34.3777 35.4723 34.0954 36.9984V36.9984ZM35.6401 27.8862C35.4075 27.9634 35.1678 28.038 34.9246 28.1108C34.3286 26.2606 33.6075 24.4531 32.7664 22.7007C33.576 20.9716 34.2688 19.1903 34.8402 17.3686C35.2761 17.4956 35.6996 17.6287 36.1071 17.7699C40.0507 19.13 42.4565 21.1435 42.4565 22.6909C42.4565 24.3422 39.858 26.4853 35.6401 27.8862V27.8862Z" fill="#FEFFFF"/>
<path d="M22.9697 26.5048C23.7252 26.5072 24.4645 26.2854 25.0939 25.8675C25.7234 25.4495 26.2146 24.8541 26.5054 24.1568C26.7963 23.4595 26.8736 22.6915 26.7278 21.9502C26.5819 21.2089 26.2193 20.5275 25.6859 19.9924C25.1525 19.4572 24.4723 19.0924 23.7315 18.9441C22.9906 18.7958 22.2224 18.8707 21.5241 19.1592C20.8258 19.4478 20.2289 19.9371 19.8089 20.5651C19.3889 21.1932 19.1647 21.9317 19.1647 22.6873C19.1636 23.1879 19.2612 23.6837 19.4519 24.1465C19.6426 24.6094 19.9226 25.0301 20.276 25.3846C20.6294 25.7391 21.0492 26.0205 21.5114 26.2127C21.9736 26.405 22.4691 26.5042 22.9697 26.5048Z" fill="#FEFFFF"/>
</svg>
