<svg width="44" height="50" viewBox="0 0 44 50" fill="none" xmlns="http://www.w3.org/2000/svg">
<path d="M24.3759 5.88257H31.5894V39.2753C27.8889 39.9776 25.1719 40.2588 22.2214 40.2588C13.4141 40.2588 8.82384 36.2771 8.82384 28.6408C8.82384 21.2857 13.6953 16.508 21.2379 16.508C22.4089 16.508 23.2986 16.6017 24.3759 16.883V5.88257ZM24.3759 22.6902C23.5917 22.4253 22.7676 22.2984 21.9401 22.3152C18.2856 22.3152 16.1789 24.5634 16.1789 28.4992C16.1789 32.3413 18.1937 34.448 21.8942 34.448C22.6902 34.448 23.3464 34.402 24.3759 34.2604V22.6883V22.6902ZM43.0677 17.0227V33.7457C43.0677 39.507 42.6468 42.2718 41.382 44.6597C40.211 46.9558 38.665 48.408 35.4792 50L28.7805 46.8142C31.9662 45.316 33.5122 44.0035 34.4957 41.9887C35.527 39.9279 35.8542 37.5381 35.8542 31.2622V17.0208H43.0677V17.0227ZM35.8542 5.92117H43.0677V13.3222H35.8542V5.92117Z" fill="#F64C72"/>
<path d="M15.552 0H22.7655V33.3928C19.065 34.095 16.348 34.3763 13.3976 34.3763C4.59024 34.3763 0 30.3945 0 22.7582C0 15.4031 4.8715 10.6254 12.4141 10.6254C13.5851 10.6254 14.4748 10.7191 15.552 11.0004V0ZM15.552 16.8076C14.7679 16.5427 13.9438 16.4158 13.1163 16.4326C9.46174 16.4326 7.35505 18.6808 7.35505 22.6166C7.35505 26.4587 9.36983 28.5654 13.0703 28.5654C13.8663 28.5654 14.5226 28.5194 15.552 28.3779V16.8058V16.8076ZM34.2439 11.1401V27.8632C34.2439 33.6244 33.8229 36.3892 32.5582 38.7772C31.3872 41.0732 29.8412 42.5255 26.6554 44.1174L19.9566 40.9316C23.1424 39.4334 24.6884 38.1209 25.6719 36.1061C26.7032 34.0454 27.0304 31.6556 27.0304 25.3796V11.1383H34.2439V11.1401ZM27.0304 0.0386044H34.2439V7.43961H27.0304V0.0386044Z" fill="#FEFFFF"/>
</svg>
