<svg width="40" height="40" viewBox="0 0 40 40" fill="none" xmlns="http://www.w3.org/2000/svg">
<path d="M25 6.66665H10V33.3333H30V11.6666H25V6.66665ZM10 3.33331H26.6667L33.3334 9.99998V33.3333C33.3334 34.2174 32.9822 35.0652 32.357 35.6903C31.7319 36.3155 30.8841 36.6666 30 36.6666H10C9.11597 36.6666 8.26812 36.3155 7.643 35.6903C7.01788 35.0652 6.66669 34.2174 6.66669 33.3333V6.66665C6.66669 5.78259 7.01788 4.93474 7.643 4.30962C8.26812 3.6845 9.11597 3.33331 10 3.33331V3.33331ZM13.3334 18.3333H26.6667V21.6666H13.3334V18.3333ZM13.3334 25H26.6667V28.3333H13.3334V25Z" fill="#FEFFFF"/>
</svg>
